<?xml version="1.0" standalone="no"?>
<!DOCTYPE svg PUBLIC "-//W3C//DTD SVG 20010904//EN"
 "http://www.w3.org/TR/2001/REC-SVG-20010904/DTD/svg10.dtd">
<svg version="1.0" xmlns="http://www.w3.org/2000/svg"
 width="677.000000pt" height="369.000000pt" viewBox="0 0 677.000000 369.000000"
 preserveAspectRatio="xMidYMid meet">

<g transform="translate(0.000000,369.000000) scale(0.100000,-0.100000)"
fill="#000000" stroke="none">
<path d="M3370 3255 c-6 -8 -9 -23 -5 -35 4 -13 -2 -43 -16 -77 -13 -31 -25
-51 -27 -45 -8 26 -22 10 -22 -27 0 -22 -4 -43 -10 -46 -5 -3 -10 -28 -10 -56
0 -27 -4 -49 -10 -49 -5 0 -10 -9 -10 -19 0 -12 -18 -31 -47 -49 -148 -95
-243 -279 -234 -454 2 -44 1 -47 -26 -50 l-28 -3 4 -131 c2 -89 0 -134 -8
-138 -6 -4 -11 -20 -11 -37 0 -24 -4 -29 -25 -29 l-26 0 6 73 c8 87 -34 409
-56 432 -5 5 -9 20 -9 33 0 13 -4 20 -10 17 -13 -8 -13 -55 0 -55 11 0 26 -55
35 -130 3 -30 13 -87 21 -127 25 -126 17 -212 -22 -238 -31 -20 -70 -10 -90
24 -9 14 -12 17 -9 6 19 -54 19 -55 -13 -55 l-30 0 5 98 c5 88 -2 167 -27 337
-19 130 -41 251 -50 270 -5 11 -10 30 -12 43 -2 12 -7 23 -13 23 -9 0 -23 -45
-45 -146 -5 -22 -14 -62 -20 -90 -18 -79 -51 -313 -55 -390 -4 -67 13 -152 37
-181 6 -8 -5 -15 -36 -23 -25 -6 -48 -15 -51 -21 -10 -17 -57 -11 -110 14 -64
29 -121 92 -135 148 -27 111 -32 120 -95 185 -79 79 -98 130 -89 233 11 112
-31 160 -142 160 -51 0 -56 -2 -51 -20 4 -16 -9 -27 -75 -64 -76 -41 -79 -44
-60 -58 20 -14 19 -16 -39 -92 -33 -43 -72 -88 -86 -100 -26 -23 -25 -46 3
-46 18 0 19 3 -21 -81 -19 -41 -51 -132 -71 -204 -35 -123 -37 -138 -38 -290
-2 -255 36 -459 115 -625 56 -117 89 -151 89 -92 1 26 1 26 15 8 8 -11 15 -26
15 -34 0 -28 82 -188 112 -219 18 -18 36 -33 40 -33 4 0 8 19 8 43 l0 42 68
-72 c77 -83 155 -143 184 -143 17 0 19 4 13 32 -4 18 -16 54 -26 81 l-19 47
24 -15 c13 -9 26 -22 29 -29 5 -13 261 -246 271 -246 11 0 6 39 -10 80 -9 23
-14 43 -12 46 3 3 48 -31 99 -75 51 -44 97 -77 101 -73 12 12 -17 98 -56 170
-19 34 -30 62 -26 62 4 0 93 -72 199 -160 105 -88 196 -160 201 -160 24 0 -8
97 -59 181 -18 28 -30 53 -27 56 6 6 178 -164 238 -237 40 -48 47 -53 54 -36
9 24 -9 94 -46 174 -70 150 -171 268 -387 454 -215 185 -381 360 -357 376 6 4
14 16 19 27 7 18 9 17 14 -10 9 -43 34 -42 73 4 35 41 48 43 48 9 0 -29 26
-21 58 18 28 33 30 34 35 14 8 -32 38 -21 63 24 23 40 23 40 54 -17 8 -15 37
-42 64 -60 36 -23 64 -55 103 -117 29 -47 67 -101 84 -120 l31 -35 23 27 c13
16 30 28 38 28 24 0 95 -69 106 -103 7 -22 36 -53 82 -91 64 -52 99 -65 99
-36 0 23 29 6 85 -50 33 -33 65 -60 73 -60 24 0 119 78 132 109 13 32 45 42
67 20 25 -25 76 20 134 119 23 40 37 41 50 3 6 -16 17 -32 26 -35 24 -10 82
59 136 161 43 84 52 94 112 131 54 35 69 50 95 103 l32 62 30 -37 c33 -41 58
-47 58 -14 0 18 5 16 36 -20 19 -23 40 -42 45 -42 5 0 12 14 16 30 l6 31 34
-41 c40 -46 73 -53 73 -15 0 14 5 25 11 25 6 0 9 -9 6 -20 -3 -10 0 -21 7 -23
27 -9 -150 -198 -328 -349 -165 -141 -279 -256 -339 -346 -82 -122 -139 -266
-123 -308 7 -16 15 -11 59 41 70 82 227 238 234 231 3 -2 -5 -19 -16 -35 -29
-40 -81 -156 -81 -179 0 -34 12 -32 62 11 136 115 353 295 355 293 2 -1 -13
-31 -32 -67 -41 -75 -69 -159 -57 -171 5 -5 50 28 102 72 51 44 94 79 96 77 2
-2 -3 -23 -11 -47 -17 -47 -19 -80 -7 -80 5 0 78 65 164 145 l156 144 -24 -69
c-13 -38 -24 -74 -24 -80 0 -41 122 40 212 141 l57 64 1 -42 c0 -24 4 -43 9
-43 14 0 79 76 99 117 10 21 32 74 48 118 26 71 29 76 32 47 6 -57 31 -35 84
73 61 122 108 295 108 395 0 21 5 51 11 67 16 42 12 258 -6 348 -26 124 -63
245 -100 324 -40 84 -39 81 -21 81 28 0 29 23 3 46 -14 12 -53 57 -86 100 -58
76 -59 78 -39 92 19 14 16 17 -62 59 -61 34 -78 48 -71 57 17 20 2 26 -58 26
-106 0 -150 -55 -138 -171 10 -90 -13 -153 -79 -214 -56 -52 -73 -84 -94 -175
-11 -44 -23 -64 -64 -105 -68 -68 -120 -83 -201 -58 -49 16 -55 21 -48 38 20
56 2 333 -31 475 -7 30 -22 90 -32 133 -10 42 -21 77 -24 77 -29 0 -106 -477
-97 -599 l6 -73 -42 6 c-53 9 -55 11 -28 40 33 35 44 130 25 218 -7 38 -14 86
-14 107 0 20 -6 60 -14 87 -7 27 -19 77 -26 112 -24 121 -31 102 -90 -248 -19
-118 -14 -245 13 -278 14 -18 7 -21 -38 -13 -33 5 -41 11 -43 31 -2 14 -7 34
-13 46 -9 18 -8 133 3 229 2 24 -1 30 -17 31 -11 1 -25 2 -31 3 -7 0 -12 29
-12 79 0 98 -30 195 -87 284 -42 64 -123 140 -165 153 -11 4 -20 14 -20 24 0
10 -7 24 -16 32 -10 8 -14 26 -13 51 2 21 -2 43 -9 50 -7 7 -12 29 -12 50 0
28 -4 36 -14 32 -15 -6 -50 72 -48 104 1 28 -8 62 -17 62 -5 0 -14 -7 -21 -15z
m-9 -158 c-10 -9 -11 -8 -5 6 3 10 9 15 12 12 3 -3 0 -11 -7 -18z m58 -33 c53
-11 34 -24 -34 -24 -36 0 -65 4 -65 9 0 17 50 25 99 15z m-82 -116 c-2 -13 -4
-3 -4 22 0 25 2 35 4 23 2 -13 2 -33 0 -45z m43 27 c0 -19 -4 -35 -10 -35 -5
0 -10 16 -10 35 0 19 5 35 10 35 6 0 10 -16 10 -35z m27 -27 c-2 -13 -4 -3 -4
22 0 25 2 35 4 23 2 -13 2 -33 0 -45z m30 10 c-2 -13 -4 -5 -4 17 -1 22 1 32
4 23 2 -10 2 -28 0 -40z m30 -5 c-3 -10 -5 -2 -5 17 0 19 2 27 5 18 2 -10 2
-26 0 -35z m17 -49 c34 -13 4 -20 -44 -10 -35 7 -66 7 -102 -1 -55 -11 -73 -9
-48 7 17 11 169 13 194 4z m-148 -51 c-29 -95 -47 -185 -56 -272 -5 -58 -11
-105 -13 -106 -1 -1 -32 -5 -69 -8 l-68 -5 0 29 c0 100 64 251 139 328 51 52
77 65 67 34z m93 -47 c24 -77 37 -153 47 -258 l6 -78 -92 0 -93 0 6 93 c11
169 50 307 87 307 15 0 24 -14 39 -64z m90 -1 c24 -26 56 -75 71 -108 32 -72
66 -215 54 -226 -5 -5 -39 -6 -75 -4 l-66 5 -7 92 c-3 50 -15 127 -27 171 -34
134 -35 139 -12 127 11 -6 39 -32 62 -57z m59 8 c18 -14 31 -32 30 -41 -2 -10
4 -17 14 -17 42 0 110 -114 133 -222 19 -87 19 -83 -12 -83 -51 0 -73 11 -73
35 0 36 -38 174 -64 230 -12 28 -37 67 -55 87 -50 57 -40 61 27 11z m-362 -22
c-51 -69 -84 -149 -100 -242 -8 -44 -16 -82 -18 -84 -2 -2 -23 -7 -47 -11
l-44 -7 7 56 c7 64 40 145 85 211 25 35 35 43 53 38 17 -4 20 -2 15 11 -4 10
6 26 29 46 52 46 60 38 20 -18z m-626 -100 c0 -11 4 -22 9 -26 6 -3 10 -13 10
-23 1 -40 30 -236 46 -312 15 -70 20 -238 9 -308 -7 -45 -33 -72 -71 -74 -82
-6 -112 49 -107 197 3 104 5 123 16 140 3 6 9 48 13 95 8 103 32 200 54 218
12 9 13 15 4 20 -8 5 -10 22 -6 50 6 42 23 59 23 23z m-669 -71 c36 -20 52
-68 45 -138 -10 -96 11 -149 94 -237 60 -63 69 -79 80 -131 7 -32 21 -75 31
-95 25 -50 92 -105 150 -124 45 -15 47 -18 37 -39 -8 -18 -6 -34 11 -71 l21
-47 -28 7 c-15 3 -34 13 -43 21 -8 8 -23 14 -33 14 -9 0 -19 7 -22 15 -4 8
-15 15 -25 15 -10 0 -19 4 -19 8 0 5 -12 14 -26 20 -14 7 -22 17 -19 22 3 6 2
10 -4 10 -16 0 -71 63 -71 81 0 9 -9 24 -19 33 -11 10 -18 23 -15 30 3 7 -4
21 -16 31 -11 10 -20 24 -20 31 0 7 -13 23 -30 36 -16 12 -30 27 -30 33 0 19
-39 48 -66 50 -14 0 -29 6 -33 13 -10 16 -2 101 15 167 13 54 11 72 -6 34 -8
-19 -9 -14 -5 26 7 65 -9 40 -25 -40 -32 -152 -12 -249 101 -483 32 -68 59
-128 59 -133 0 -19 -62 34 -117 100 -58 70 -93 136 -93 177 0 21 -2 23 -14 12
-8 -7 -11 -17 -6 -23 15 -21 17 -55 5 -72 -13 -17 -15 -15 -29 19 -18 41 -21
98 -7 98 5 0 12 -6 15 -12 3 -7 2 1 -1 17 -4 17 -7 47 -7 68 0 25 -5 37 -15
37 -10 0 -12 10 -8 40 3 22 1 40 -4 40 -12 0 -11 34 2 63 8 17 8 30 1 43 -8
14 -12 3 -17 -52 -7 -66 -43 -154 -64 -154 -12 0 -6 92 8 117 15 30 14 38 -4
23 -12 -10 -15 -10 -15 3 0 9 4 27 10 42 7 17 7 24 0 20 -6 -3 -10 -12 -10
-20 0 -18 -50 -65 -69 -65 -16 0 -19 -6 73 114 33 43 75 86 95 96 l36 19 -37
-6 c-21 -3 -38 -3 -38 0 0 9 94 65 122 72 17 5 25 12 21 21 -6 17 48 20 78 4z
m3005 -5 c-3 -9 0 -15 10 -15 19 0 82 -33 114 -60 l25 -22 -40 6 -40 5 40 -22
c21 -12 54 -42 72 -67 19 -25 50 -65 69 -90 20 -24 31 -46 25 -48 -13 -4 -60
29 -61 44 0 5 -7 19 -15 30 -14 18 -14 17 -5 -9 5 -16 10 -35 10 -44 0 -13 -3
-13 -15 -3 -14 12 -14 10 -4 -16 14 -34 20 -124 8 -124 -5 0 -13 9 -19 21 -17
30 -21 18 -8 -23 14 -46 2 -128 -18 -128 -18 0 -44 58 -44 100 0 20 5 30 16
30 8 0 12 5 9 10 -9 15 5 51 16 44 7 -4 7 0 0 12 -5 11 -13 50 -17 88 -4 51
-9 65 -15 53 -6 -11 -6 -24 1 -36 12 -23 13 -71 2 -71 -4 0 -6 -16 -4 -35 2
-19 0 -41 -6 -48 -5 -6 -12 -32 -16 -56 -8 -50 -23 -84 -35 -76 -5 2 -11 -12
-15 -33 -3 -21 -20 -60 -37 -86 -41 -61 -161 -184 -166 -169 -2 6 15 49 38 95
115 228 146 337 129 456 -12 84 -28 152 -36 152 -3 0 -3 -19 1 -42 7 -41 6
-42 -10 -23 -17 20 -17 20 -10 0 3 -11 10 -40 15 -65 23 -122 20 -143 -24
-145 -28 -2 -56 -21 -56 -40 0 -7 -13 -24 -29 -37 -16 -14 -32 -34 -35 -45 -4
-12 -13 -27 -21 -33 -8 -7 -15 -20 -15 -30 0 -10 -7 -23 -15 -30 -8 -7 -15
-21 -15 -31 0 -10 -8 -24 -18 -31 -10 -7 -21 -21 -25 -30 -3 -10 -14 -18 -22
-18 -9 0 -13 -4 -10 -10 3 -5 -5 -15 -19 -22 -14 -6 -26 -15 -26 -20 0 -4 -9
-8 -20 -8 -11 0 -19 -6 -17 -12 1 -7 -9 -14 -23 -16 -14 -2 -32 -10 -40 -17
-8 -7 -25 -16 -37 -19 l-21 -7 16 51 c12 38 13 55 5 69 -9 15 -4 19 39 35 81
28 168 124 168 183 0 52 25 99 89 168 79 85 95 129 85 229 -10 96 22 145 95
146 25 0 32 -3 27 -15z m-702 -67 c3 -15 2 -30 -4 -33 -6 -4 -4 -12 5 -21 8
-9 15 -24 15 -34 0 -10 5 -22 10 -25 6 -3 10 -20 10 -36 0 -17 -4 -28 -10 -24
-12 7 -1 -57 11 -65 14 -9 39 -197 34 -254 -5 -62 -26 -110 -50 -120 -24 -9
-65 -7 -65 3 0 5 -8 11 -18 13 -13 4 -21 18 -25 44 -10 60 -8 205 3 244 6 19
20 98 30 175 11 77 23 148 26 158 7 23 19 12 28 -25z m-216 -29 c-3 -16 -1
-29 2 -29 11 0 33 -86 27 -102 -4 -9 -6 -7 -6 5 -1 9 -6 17 -12 17 -7 0 -8 -7
-4 -17 4 -10 10 -28 12 -40 3 -13 9 -23 13 -23 12 0 23 -79 24 -178 1 -87 -1
-95 -23 -113 -27 -22 -59 -24 -84 -5 -27 21 -33 137 -13 266 10 58 21 132 26
166 5 34 12 68 16 77 10 26 26 8 22 -24z m-740 -106 c-3 -36 -5 -38 -48 -46
-88 -15 -85 -16 -88 30 l-3 42 48 4 c26 2 58 4 71 5 21 2 23 -2 20 -35z m212
2 c0 -43 -20 -55 -90 -55 -70 0 -90 12 -90 55 l0 35 90 0 90 0 0 -35z m138 25
c33 0 33 0 30 -42 -3 -47 -23 -59 -62 -39 -11 6 -34 12 -51 13 -23 2 -31 9
-33 26 -6 43 5 55 46 48 20 -3 52 -6 70 -6z m-518 -40 c0 -25 -4 -30 -34 -36
-45 -8 -58 -3 -63 24 -3 25 22 40 70 41 23 1 27 -3 27 -29z m639 24 c26 -6 31
-11 31 -35 0 -31 -10 -35 -69 -23 -26 6 -31 11 -31 35 0 31 10 35 69 23z
m-439 -89 c0 -11 -11 -15 -40 -15 -29 0 -40 4 -40 15 0 11 11 15 40 15 29 0
40 -4 40 -15z m260 -1 c0 -12 -9 -14 -42 -12 -59 4 -63 28 -4 28 35 0 46 -4
46 -16z m-460 -9 c0 -10 -11 -15 -35 -15 -24 0 -35 5 -35 15 0 10 11 15 35 15
24 0 35 -5 35 -15z m645 0 c0 -5 -17 -11 -37 -13 -30 -3 -38 0 -38 13 0 13 8
16 38 13 20 -2 37 -7 37 -13z m-545 -14 c0 -13 -10 -20 -31 -25 -23 -4 -30
-10 -25 -22 3 -9 6 -42 6 -75 0 -56 1 -59 25 -59 20 0 25 -5 25 -25 0 -22 -4
-25 -40 -25 l-40 0 0 118 c0 65 3 122 7 125 3 4 21 7 40 7 26 0 33 -4 33 -19z
m259 2 c5 -10 8 -65 7 -123 l-1 -105 -75 0 -75 0 -3 90 c-2 50 0 105 3 123 l6
32 64 0 c51 0 66 -4 74 -17z m196 -25 c3 -24 5 -79 3 -123 l-3 -80 -40 0 c-33
0 -40 3 -40 20 0 13 8 21 23 23 20 3 22 9 22 61 0 31 5 62 12 69 10 10 5 15
-20 24 -45 17 -44 48 2 48 33 0 35 -2 41 -42z m-675 22 c0 -5 -7 -10 -15 -10
-8 0 -15 5 -15 10 0 6 7 10 15 10 8 0 15 -4 15 -10z m850 0 c0 -5 -6 -10 -14
-10 -8 0 -18 5 -21 10 -3 6 3 10 14 10 12 0 21 -4 21 -10z m-585 -120 c0 -74
-4 -105 -12 -107 -10 -4 -13 22 -13 107 0 85 3 111 13 108 8 -3 12 -34 12
-108z m45 0 c0 -67 -4 -110 -10 -110 -6 0 -10 43 -10 110 0 67 4 110 10 110 6
0 10 -43 10 -110z m218 -3 c-4 -127 -22 -132 -26 -8 -3 101 2 131 19 114 5 -5
9 -51 7 -106z m47 3 c0 -74 -4 -105 -12 -107 -10 -4 -13 22 -13 107 0 85 3
111 13 108 8 -3 12 -34 12 -108z m-505 -6 c0 -67 -4 -103 -10 -99 -11 7 -14
188 -3 198 12 13 13 7 13 -99z m50 0 c0 -80 -3 -105 -12 -102 -9 3 -14 33 -16
93 -3 92 0 115 18 115 6 0 10 -40 10 -106z m600 0 c0 -80 -3 -105 -12 -102 -9
3 -14 33 -15 94 -3 95 0 114 17 114 6 0 10 -40 10 -106z m40 -4 c0 -60 -4
-100 -10 -100 -6 0 -10 40 -10 100 0 60 4 100 10 100 6 0 10 -40 10 -100z
m-770 -6 c0 -61 -4 -93 -10 -89 -5 3 -10 46 -10 96 0 53 4 89 10 89 6 0 10
-39 10 -96z m223 89 c-7 -2 -19 -2 -25 0 -7 3 -2 5 12 5 14 0 19 -2 13 -5z
m420 0 c-7 -2 -19 -2 -25 0 -7 3 -2 5 12 5 14 0 19 -2 13 -5z m207 -88 c0 -57
-4 -95 -10 -95 -6 0 -10 38 -10 95 0 57 4 95 10 95 6 0 10 -38 10 -95z m-2273
-24 c-19 -56 -41 -109 -50 -119 -10 -9 -17 -11 -17 -5 0 34 87 240 97 229 2
-1 -12 -49 -30 -105z m70 80 c-4 -16 -2 -31 4 -33 6 -2 4 -19 -6 -42 -9 -22
-25 -67 -36 -102 -10 -34 -26 -67 -34 -74 -25 -21 -19 58 11 147 35 106 74
172 61 104z m3557 2 c47 -93 88 -291 52 -253 -8 8 -28 53 -44 100 -16 47 -33
93 -37 103 -4 10 -3 17 4 17 6 0 8 11 5 30 -8 37 1 39 20 3z m75 -83 c16 -41
33 -89 36 -105 7 -30 7 -30 -12 -10 -11 11 -32 59 -47 108 -15 48 -29 95 -32
105 -16 49 29 -30 55 -98z m-3529 54 c0 -13 5 -24 10 -24 15 0 12 -56 -5 -96
-8 -20 -20 -34 -27 -32 -17 6 -30 57 -23 100 10 74 45 114 45 52z m3180 -36
c0 -22 -14 -35 -50 -51 -20 -9 -28 -16 -17 -16 26 -1 20 -20 -10 -32 -21 -8
-24 -12 -13 -19 11 -7 11 -11 1 -24 -8 -9 -20 -16 -27 -16 -8 0 -13 -9 -11
-22 2 -19 -4 -24 -30 -26 -38 -4 -37 -5 -18 41 29 69 101 162 131 170 34 8 44
7 44 -5z m-2942 -36 c44 -44 70 -83 94 -136 23 -48 23 -46 -11 -46 -33 0 -51
18 -31 30 9 6 4 13 -19 24 -34 18 -41 36 -13 36 10 1 4 6 -14 14 -38 17 -52
36 -27 36 11 0 3 9 -22 23 -48 27 -59 57 -20 57 17 0 39 -13 63 -38z m-318 -8
c0 -9 5 -12 12 -8 8 5 9 0 4 -17 -5 -13 -16 -58 -26 -101 -10 -42 -24 -86 -33
-98 -15 -22 -15 -22 -22 -1 -3 11 -3 37 0 58 18 105 65 227 65 167z m3527 -51
c25 -81 36 -153 27 -177 -6 -16 -8 -15 -20 3 -8 10 -22 57 -33 102 -11 46 -23
93 -27 103 -5 14 -4 17 4 12 7 -4 12 -1 12 8 0 36 17 12 37 -51z m-137 -13 c0
-40 -27 -103 -40 -95 -16 10 -12 60 8 94 22 39 32 39 32 1z m-1190 -25 l0 -25
-450 0 -450 0 0 25 0 25 450 0 450 0 0 -25z m-2160 -13 c0 -15 2 -15 11 -2 15
23 0 -168 -17 -209 -11 -27 -17 -32 -26 -23 -15 15 -14 196 1 235 11 29 31 28
31 -1z m3450 -53 c10 -68 3 -176 -12 -185 -16 -10 -35 61 -42 156 -4 56 -3 89
2 82 7 -10 11 -8 15 9 10 38 27 10 37 -62z m-3390 16 c0 -12 5 -26 12 -33 15
-15 22 -182 8 -202 -9 -13 -11 -13 -20 0 -19 28 -30 85 -30 151 0 83 10 136
21 117 5 -7 9 -22 9 -33z m210 25 c23 -23 26 -40 6 -40 -8 0 -19 14 -25 30
-12 35 -8 37 19 10z m2890 -9 c-11 -22 -22 -26 -34 -14 -4 4 3 15 16 24 27 21
33 18 18 -10z m218 -121 c-5 -79 -21 -140 -38 -140 -13 0 -20 42 -20 123 0 60
3 79 15 83 8 4 15 17 15 29 0 13 3 31 7 41 13 34 25 -47 21 -136z m-3573 68
c-4 -34 -3 -39 5 -23 9 18 10 17 5 -5 -2 -14 -5 -34 -6 -45 -1 -16 -2 -16 -8
5 -4 14 -6 -30 -3 -97 4 -110 2 -128 -18 -177 -12 -31 -26 -53 -31 -50 -16 10
-10 224 10 316 15 75 33 118 47 118 2 0 2 -19 -1 -42z m2449 33 c30 -1 37 -4
32 -16 -3 -10 1 -15 12 -16 28 -2 47 2 53 12 3 6 25 7 50 3 73 -12 126 -78 82
-103 -14 -8 -11 -10 20 -16 52 -10 68 -2 61 33 -9 45 13 56 72 36 53 -17 84
-40 84 -60 0 -18 -105 -74 -139 -74 -40 0 -79 -19 -86 -42 -8 -24 -27 -33
-101 -47 -50 -9 -68 -9 -104 4 -43 15 -240 22 -240 8 0 -4 12 -19 26 -34 l27
-28 -24 -5 c-13 -3 -46 -8 -74 -11 -27 -4 -61 -13 -75 -20 -14 -7 -53 -15 -88
-18 -49 -5 -73 -3 -115 13 -42 17 -73 20 -165 19 -127 -2 -159 9 -98 35 20 9
52 23 72 32 66 28 28 26 -102 -6 l-129 -31 -92 18 c-51 10 -92 22 -90 28 2 5
26 18 53 28 79 29 72 36 -23 19 -102 -17 -189 -21 -218 -9 -19 8 -18 10 10 34
l30 25 -72 -7 c-66 -6 -76 -4 -132 25 -34 16 -61 34 -61 38 0 27 88 72 143 72
20 0 24 -44 5 -56 -19 -12 35 -23 72 -15 29 6 31 8 16 20 -41 35 11 88 96 98
45 5 51 4 45 -10 -8 -21 8 -30 38 -23 17 4 22 11 18 25 -4 17 1 20 38 23 35 2
898 1 1073 -1z m76 -12 c0 -5 -4 -9 -10 -9 -5 0 -10 7 -10 16 0 8 5 12 10 9 6
-3 10 -10 10 -16z m-1211 -18 c-15 -5 -22 6 -14 19 6 9 10 9 16 -1 5 -8 4 -15
-2 -18z m2509 17 c32 -41 62 -418 33 -418 -5 0 -19 26 -31 58 -19 50 -22 71
-18 177 3 66 1 109 -3 95 -6 -21 -7 -21 -8 -5 -1 11 -4 31 -6 45 -5 22 -4 23
5 5 8 -16 9 -12 5 18 -6 37 4 48 23 25z m-498 -29 c-12 -21 -27 -24 -49 -10
-10 7 -7 12 15 23 35 18 47 13 34 -13z m-2790 -7 c6 -4 -23 -22 -36 -22 -14 0
-26 28 -19 41 5 7 25 0 55 -19z m-183 -11 c7 -10 15 -63 19 -117 l7 -99 -23
20 c-13 11 -29 34 -36 50 -15 36 -29 149 -20 163 9 14 40 4 53 -17z m2890 12
c4 -10 -37 -26 -45 -18 -3 3 1 12 8 20 14 17 31 16 37 -2z m259 -61 c-8 -76
-24 -119 -56 -147 l-23 -20 7 99 c7 100 18 133 46 139 28 7 33 -5 26 -71z
m-3438 12 c6 3 8 -359 3 -413 -3 -34 -21 9 -37 89 -20 103 -16 338 7 367 13
15 14 13 17 -16 2 -17 6 -29 10 -27z m540 44 c17 -17 15 -28 -7 -28 -22 0 -35
15 -26 30 8 13 18 13 33 -2z m3167 -5 c4 -10 10 -83 12 -163 3 -116 0 -160
-14 -219 -10 -41 -22 -73 -28 -72 -6 1 -10 78 -10 210 0 115 3 207 8 204 4 -2
7 10 7 26 0 34 14 41 25 14z m-475 -13 c12 -8 13 -11 1 -19 -14 -9 -51 -3 -51
8 0 21 26 27 50 11z m-2730 -10 c11 -7 9 -11 -13 -19 -38 -14 -47 -14 -47 3 0
23 34 32 60 16z m544 -6 c10 -25 7 -34 -9 -34 -9 0 -15 9 -15 25 0 28 15 34
24 9z m1626 -19 c0 -18 -4 -23 -15 -19 -16 6 -20 26 -8 37 13 14 23 6 23 -18z
m500 9 c50 -20 55 -48 8 -42 -18 3 -42 8 -53 13 -11 4 -3 -5 18 -19 20 -15 37
-32 37 -38 0 -16 -56 -2 -91 23 -24 17 -27 24 -18 35 6 8 15 12 19 9 4 -3 10
4 13 15 6 24 15 25 67 4z m-2590 -9 c7 -8 9 -15 4 -16 -5 0 2 -5 16 -10 l25
-10 -30 -25 c-26 -21 -95 -35 -95 -19 0 3 15 14 33 26 l32 20 -46 -6 c-64 -9
-73 10 -17 35 52 24 62 24 78 5z m-524 -23 c-8 -13 12 -306 24 -367 10 -44 10
-69 3 -90 l-11 -30 -12 30 c-42 106 -62 390 -31 448 8 15 18 24 23 21 4 -3 6
-9 4 -12z m3587 -11 c34 -58 14 -331 -33 -446 l-12 -30 -11 30 c-7 21 -7 46 3
90 13 63 31 351 23 373 -10 24 13 12 30 -17z m-3267 -98 c2 2 -1 18 -7 36 -6
18 -10 34 -8 36 12 12 52 -44 95 -135 58 -120 117 -219 175 -292 22 -28 37
-53 34 -56 -8 -8 -107 62 -159 114 -53 54 -99 120 -145 211 -23 44 -32 79 -36
134 l-6 74 27 -63 c14 -35 28 -61 30 -59z m2972 43 c-8 -100 -73 -219 -186
-338 -55 -58 -148 -125 -158 -115 -3 3 14 30 38 59 59 72 108 154 170 285 47
97 78 142 101 143 4 0 0 -16 -8 -35 -40 -93 -46 -109 -37 -100 6 6 25 45 42
88 18 42 35 77 38 77 2 0 2 -29 0 -64z m-260 15 c17 -17 32 -32 32 -35 0 -14
-50 -4 -74 15 -21 17 -24 24 -15 35 16 19 20 18 57 -15z m-2438 9 c13 -9 10
-14 -15 -35 -28 -23 -75 -34 -75 -18 0 11 53 63 64 63 6 0 18 -5 26 -10z m316
-116 c25 -79 31 -75 9 6 -8 30 -15 56 -15 58 0 1 11 2 25 2 19 0 25 -5 25 -23
0 -51 33 -132 71 -176 30 -34 39 -52 39 -80 0 -21 6 -45 13 -54 10 -15 12 -10
12 32 -1 49 -16 82 -60 131 -22 24 -59 119 -51 128 3 2 26 -3 51 -11 33 -12
53 -13 71 -7 38 15 39 14 41 -38 1 -26 14 -103 28 -171 l25 -124 66 -73 c36
-41 78 -83 93 -93 27 -20 69 -96 58 -107 -3 -3 -17 2 -30 11 -20 13 -30 14
-46 5 -18 -9 -23 -7 -31 15 -6 15 -10 32 -10 38 0 7 -4 18 -8 25 -5 7 -7 -16
-4 -50 l3 -63 -72 111 c-55 83 -85 118 -121 142 -35 23 -56 47 -77 90 -20 39
-43 67 -70 85 -51 34 -72 66 -75 114 -1 26 -15 59 -44 102 -23 35 -42 73 -42
83 0 17 5 16 52 -10 50 -28 54 -33 74 -98z m1841 25 c-19 -41 -39 -90 -46
-110 -10 -32 -35 -60 -100 -114 l-23 -20 6 65 c9 91 -9 56 -24 -45 -6 -44 -22
-102 -34 -130 -21 -45 -33 -56 -120 -109 -97 -60 -113 -73 -76 -61 11 3 20 2
20 -2 0 -17 -105 -187 -119 -191 -11 -4 -12 4 -8 34 3 22 3 31 1 22 -3 -10
-10 -18 -15 -18 -23 0 -20 40 11 136 30 93 40 111 97 175 35 40 63 80 63 89 0
19 37 57 46 47 4 -3 1 -20 -5 -38 -6 -18 -10 -44 -10 -58 1 -22 3 -20 12 13 7
25 23 47 47 64 55 41 58 44 18 28 -65 -28 -64 -19 7 70 30 38 62 90 71 116 18
54 45 78 87 78 27 0 28 -2 22 -31 -9 -42 10 -30 24 14 8 22 23 39 44 49 17 9
33 12 35 8 1 -4 -13 -40 -31 -81z m-2641 41 c4 -22 10 -37 14 -35 5 3 11 -19
15 -47 11 -86 43 -194 79 -266 19 -37 37 -90 41 -117 l7 -50 -34 33 c-48 45
-113 173 -132 259 -18 80 -22 263 -6 263 5 0 13 -18 16 -40z m2884 -26 c0 -21
-15 -17 -50 13 -31 25 -31 27 -14 40 17 12 22 11 42 -12 12 -14 22 -33 22 -41z
m480 -33 c0 -55 -7 -130 -16 -168 -19 -83 -85 -211 -132 -255 l-35 -33 7 45
c4 25 24 83 46 130 39 86 63 166 75 253 3 26 10 47 15 47 4 0 11 18 15 40 12
72 25 42 25 -59z m-2832 76 c13 -15 6 -27 -28 -50 -45 -31 -54 -15 -19 34 23
32 31 35 47 16z m-597 -82 l2 -50 7 50 7 50 1 -46 c3 -70 31 -208 53 -260 14
-33 19 -63 17 -105 l-3 -59 -31 60 c-54 105 -84 235 -84 369 0 90 28 82 31 -9z
m157 33 c5 -18 15 -32 26 -34 35 -5 44 -13 50 -48 4 -19 27 -97 52 -173 67
-206 74 -233 63 -233 -21 0 -103 87 -139 149 -64 109 -108 301 -84 365 8 22
22 11 32 -26z m2717 12 c28 -54 15 -66 -31 -27 -18 16 -25 30 -21 40 10 26 35
20 52 -13z m205 2 c38 -39 26 -62 -19 -36 -33 19 -35 23 -25 48 8 21 11 21 44
-12z m272 -44 c-2 -142 -70 -308 -166 -403 -42 -42 -61 -55 -64 -44 -1 8 16
74 39 145 23 71 51 163 62 205 16 57 26 78 44 86 20 10 23 8 24 -10 0 -15 4
-10 10 13 25 93 52 98 51 8z m148 19 c0 -67 -18 -212 -31 -257 -17 -56 -71
-170 -80 -170 -19 0 -9 105 16 165 15 38 29 104 37 176 12 104 14 110 19 64
l6 -50 1 47 c3 89 32 112 32 25z m-3053 27 c18 -17 16 -20 -38 -49 -19 -10
-29 -11 -37 -3 -9 9 -5 19 16 40 32 32 38 33 59 12z m218 6 c7 -11 -47 -70
-64 -70 -15 0 -14 16 4 50 15 30 48 40 60 20z m2155 -36 c13 -32 13 -54 1 -54
-15 0 -53 59 -46 70 11 18 35 10 45 -16z m214 -8 c33 -30 46 -56 30 -56 -26 0
-94 61 -94 84 0 16 33 2 64 -28z m-2524 13 c0 -19 -58 -69 -79 -69 -30 0 -26
14 14 49 36 31 65 40 65 20z m200 -4 c0 -22 -52 -73 -58 -57 -7 23 19 72 39
72 11 0 19 -7 19 -15z m2055 -21 c7 -42 2 -52 -20 -34 -23 19 -19 70 6 70 4 0
10 -16 14 -36z m-2005 -4 c0 -9 -9 -25 -20 -35 -16 -15 -20 -15 -25 -3 -9 24
12 68 30 62 8 -3 15 -14 15 -24z m2235 -34 c30 -60 31 -76 6 -76 -25 0 -91 74
-91 103 0 20 5 24 30 24 26 0 33 -7 55 -51z m-2425 19 c0 -31 -65 -105 -92
-105 -15 0 -18 4 -12 23 16 53 45 96 66 100 13 2 26 5 31 6 4 0 7 -10 7 -24z
m1737 2 c8 -5 7 -21 -3 -60 -14 -52 -18 -95 -9 -85 3 2 9 29 15 58 10 53 24
79 35 68 4 -3 -1 -33 -9 -66 -9 -33 -16 -82 -16 -109 0 -46 -4 -54 -56 -111
-59 -65 -88 -77 -118 -46 -20 19 -20 26 -1 71 22 52 21 240 -2 272 l-16 24 84
-5 c47 -2 90 -7 96 -11z m193 -2 c0 -32 -141 -188 -148 -165 -3 7 1 43 7 81
12 66 13 68 49 77 41 11 92 15 92 7z m416 -50 c17 -42 18 -75 2 -75 -17 0 -78
61 -78 78 0 7 5 22 10 33 15 27 47 9 66 -36z m-2280 20 c13 -26 0 -53 -41 -87
-45 -38 -57 -14 -29 59 14 36 24 45 54 52 3 0 10 -10 16 -24z m619 -4 l70 -16
22 -85 c24 -94 31 -81 8 15 -7 33 -10 63 -7 67 4 4 22 11 40 14 l32 7 0 -65
c0 -37 5 -69 12 -76 10 -10 10 -17 0 -32 -7 -12 -8 -20 -2 -20 6 0 10 -26 10
-60 0 -43 7 -74 23 -108 13 -26 34 -87 47 -135 21 -80 27 -92 68 -128 57 -50
83 -53 47 -5 -8 11 -16 38 -16 60 -1 26 -3 32 -6 16 -8 -49 -12 -54 -29 -39
-19 16 -29 39 -55 137 -11 41 -29 91 -39 113 -20 39 -29 149 -12 149 13 0 40
-32 51 -60 l10 -25 0 27 c1 18 -11 41 -34 66 -36 41 -55 80 -55 115 0 22 3 23
127 25 l126 2 -7 -152 -7 -153 -39 -61 c-22 -33 -40 -69 -39 -80 0 -14 2 -15
6 -4 8 23 55 90 63 90 4 0 10 -15 13 -32 3 -18 21 -68 41 -111 l36 -79 40 32
c49 39 50 35 14 -104 -37 -145 -44 -166 -57 -166 -17 0 -134 121 -140 145 -4
16 -5 16 -6 -5 0 -14 -10 -31 -22 -38 -19 -12 -26 -9 -77 36 -48 41 -63 64
-100 147 -23 53 -41 100 -38 102 2 3 14 -1 26 -7 12 -6 23 -10 26 -8 2 2 -26
21 -62 42 -61 36 -164 138 -190 189 -10 19 -54 244 -54 275 0 12 13 11 135
-17z m-545 -11 c16 -16 18 -24 9 -47 -13 -36 -38 -63 -57 -63 -12 0 -13 9 -8
45 5 43 21 85 31 85 3 0 14 -9 25 -20z m2112 -25 c5 -22 7 -51 6 -65 l-3 -25
-28 29 c-34 36 -43 70 -25 90 21 25 42 14 50 -29z m-82 13 c0 -13 3 -40 6 -60
8 -47 -13 -52 -39 -9 -22 38 -22 78 1 84 30 8 32 7 32 -15z m320 1 c0 -6 -4
-7 -10 -4 -5 3 -10 11 -10 16 0 6 5 7 10 4 6 -3 10 -11 10 -16z m-2620 3 c0
-13 -12 -22 -22 -16 -10 6 -1 24 13 24 5 0 9 -4 9 -8z m352 -31 c-4 -41 -29
-81 -49 -81 -12 0 -14 10 -8 53 9 64 12 69 38 65 19 -3 21 -9 19 -37z m1348
-67 c0 -111 -40 -214 -101 -261 -60 -46 -79 -36 -79 41 0 36 8 85 20 119 11
32 20 82 20 117 l0 60 38 1 c20 1 48 4 62 8 14 5 28 6 33 4 4 -2 7 -42 7 -89z
m-2240 -274 c11 -47 28 -102 36 -124 10 -26 13 -53 8 -84 -7 -45 -7 -46 -24
-24 -50 62 -115 271 -126 407 -9 112 8 111 25 -2 8 -48 19 -103 27 -123 17
-47 17 -35 0 47 -19 91 -30 228 -20 244 5 8 17 -39 30 -121 12 -74 32 -173 44
-220z m1885 318 c39 -11 146 -1 186 16 14 6 16 -2 11 -71 -2 -43 -10 -87 -16
-98 -7 -11 -16 -48 -19 -82 -8 -78 -61 -187 -112 -231 -45 -40 -56 -40 -50 1
l5 32 -13 -35 c-8 -19 -18 -34 -23 -33 -4 1 -21 38 -36 82 -24 73 -26 91 -21
171 3 50 10 90 14 90 18 0 89 -86 90 -110 1 -22 2 -21 10 8 5 17 13 32 17 32
4 0 13 10 21 23 l14 22 -25 -23 -25 -22 -51 55 -52 56 0 70 c0 64 2 70 18 64
9 -3 35 -11 57 -17z m1861 -62 c-3 -47 -13 -117 -21 -157 -9 -40 -14 -74 -12
-76 6 -6 25 69 38 152 18 115 33 120 25 8 -10 -140 -74 -351 -125 -415 -18
-21 -18 -21 -24 19 -5 30 1 66 23 139 28 96 61 254 75 362 4 28 12 52 17 52 7
0 9 -28 4 -84z m-648 42 c4 2 8 -2 11 -9 2 -6 -1 -9 -6 -6 -5 3 -9 -3 -9 -15
1 -12 -4 -23 -10 -25 -13 -4 -34 39 -34 69 0 21 0 21 21 2 12 -10 24 -18 27
-16z m-2478 -33 c-12 -38 -35 -43 -34 -7 0 13 -4 18 -14 14 -10 -3 -13 0 -10
9 3 8 12 14 21 14 9 0 22 6 29 13 18 18 22 -1 8 -43z m2151 12 c-17 -17 -24
-1 -9 22 11 18 14 19 16 5 2 -9 -1 -21 -7 -27z m-1841 -3 c0 -8 -4 -14 -10
-14 -5 0 -10 9 -10 21 0 11 5 17 10 14 6 -3 10 -13 10 -21z m2061 -66 l24 -68
-23 -22 c-19 -20 -24 -21 -36 -8 -12 12 -56 126 -56 145 0 2 10 4 22 2 18 -1
24 4 26 23 5 30 10 20 43 -72z m41 62 c21 0 33 -52 18 -79 -6 -12 -13 -21 -16
-21 -7 0 -54 107 -54 122 0 6 8 4 18 -5 10 -10 26 -17 34 -17z m-2270 -24 c10
3 18 0 18 -6 0 -24 -36 -112 -56 -137 l-20 -25 -18 26 c-17 26 -16 30 10 109
26 78 28 80 38 54 7 -20 15 -26 28 -21z m-316 -38 c22 -44 39 -67 43 -59 5 7
23 -11 51 -51 132 -190 302 -379 420 -469 55 -41 55 -41 15 -4 -143 134 -179
170 -250 255 -88 104 -179 229 -173 235 10 10 108 -68 153 -121 27 -33 92
-103 144 -156 52 -54 88 -98 80 -98 -8 0 5 -9 27 -19 47 -21 65 -41 37 -41
-10 0 16 -19 57 -42 87 -48 232 -186 298 -285 51 -75 122 -219 122 -246 0 -14
-34 15 -112 95 -116 118 -195 188 -334 293 -110 83 -337 313 -409 413 -90 125
-229 372 -210 372 3 0 21 -32 41 -72z m254 67 c0 -2 -12 -30 -26 -62 l-25 -58
-19 25 c-15 20 -16 28 -6 48 14 27 76 65 76 47z m141 -35 c23 0 24 -21 4 -81
-18 -49 -69 -118 -81 -106 -7 7 14 111 39 196 9 30 12 32 15 14 2 -15 10 -23
23 -23z m2383 -57 c-163 -301 -309 -472 -609 -711 -93 -75 -225 -191 -292
-259 -68 -69 -123 -117 -123 -108 0 28 65 159 118 236 93 138 203 243 323 309
30 16 46 30 36 30 -28 0 -10 20 37 41 22 10 34 19 26 19 -8 0 29 44 81 98 53
53 118 124 144 157 42 52 143 131 154 120 5 -6 -94 -140 -178 -240 -87 -103
-130 -146 -253 -252 -49 -42 -88 -78 -88 -81 0 -3 8 2 18 10 9 8 55 46 102 85
143 118 276 267 410 461 28 40 46 58 51 51 4 -8 21 16 44 60 20 40 39 71 42
68 3 -3 -16 -46 -43 -94z m-340 70 c17 -62 38 -184 32 -190 -12 -12 -64 55
-81 105 -21 64 -20 85 5 77 14 -5 20 -2 20 9 0 22 17 20 24 -1z m-1984 -4 c0
-7 9 -9 21 -6 27 7 33 -11 19 -62 -11 -43 -54 -101 -65 -89 -9 9 6 168 16 168
5 0 9 -5 9 -11z m1904 -26 c9 -57 7 -133 -4 -133 -18 0 -60 86 -60 124 0 33 2
37 20 31 11 -4 20 -2 20 4 0 27 18 7 24 -26z m-88 -33 c-2 -33 -6 -63 -9 -66
-8 -8 -47 57 -47 78 0 16 35 48 52 48 4 0 6 -27 4 -60z m-1713 36 c9 -7 17
-22 17 -32 0 -19 -35 -84 -45 -84 -3 0 -5 29 -5 65 0 68 3 73 33 51z m-964
-68 c5 -18 13 -53 16 -78 18 -123 68 -293 117 -400 29 -63 58 -151 58 -179 0
-11 -5 -9 -21 5 -47 42 -137 281 -199 529 -33 130 -34 135 -21 135 5 0 14 -24
21 -52 15 -74 41 -160 46 -155 2 2 -4 37 -15 78 -27 109 -33 149 -22 149 5 0
14 -15 20 -32z m3621 25 c0 -5 -11 -57 -25 -117 -14 -60 -23 -111 -21 -113 3
-3 39 127 51 185 6 29 25 46 25 21 0 -57 -124 -457 -175 -564 -34 -72 -75
-123 -75 -93 0 25 29 112 59 179 47 105 92 257 115 394 11 61 28 115 38 115 4
0 8 -3 8 -7z m-3121 -197 c126 -190 260 -335 451 -493 95 -78 170 -160 222
-243 39 -62 63 -118 55 -126 -3 -3 -25 12 -49 33 -24 22 -88 77 -143 122 -55
46 -122 101 -150 124 -104 87 -289 275 -350 358 -64 84 -137 200 -132 205 2 2
12 1 24 -2 12 -3 49 -47 87 -104 37 -55 115 -148 177 -211 61 -63 81 -80 44
-39 -37 41 -75 86 -84 100 -9 14 -35 49 -58 78 -99 122 -176 251 -187 312 -6
30 -5 33 6 16 7 -10 46 -69 87 -130z m2681 87 c-14 -44 -166 -277 -204 -312
-14 -14 -26 -29 -26 -34 0 -6 -37 -51 -81 -101 -78 -87 -76 -86 32 24 72 73
137 151 177 212 38 58 72 98 85 102 11 3 23 3 25 1 6 -5 -81 -137 -148 -225
-58 -76 -239 -257 -340 -342 -30 -25 -111 -92 -179 -149 -160 -134 -161 -135
-161 -117 0 26 89 170 146 234 31 36 100 101 153 144 108 88 255 234 328 326
26 34 82 113 123 176 41 63 76 111 78 107 2 -5 -2 -26 -8 -46z m-3097 -78 c28
-98 67 -208 72 -203 2 2 -9 46 -25 98 -32 100 -37 134 -14 85 l14 -30 -6 40
c-10 66 14 29 50 -76 41 -119 91 -217 150 -296 63 -84 145 -263 121 -263 -18
0 -120 88 -167 144 -75 90 -115 156 -154 256 -57 150 -98 322 -80 340 6 6 12
7 13 3 1 -4 13 -48 26 -98z m3456 -2 c-41 -195 -108 -350 -204 -471 -58 -73
-166 -172 -189 -172 -25 0 52 170 118 260 60 81 125 209 160 317 28 85 55 125
43 64 -4 -20 -3 -30 3 -26 6 3 10 14 11 23 0 9 3 12 5 7 2 -6 -9 -53 -25 -105
-17 -52 -28 -96 -26 -98 8 -8 95 260 95 295 0 12 3 13 13 4 12 -9 11 -25 -4
-98z m-3285 -35 c55 -158 169 -331 315 -483 80 -82 124 -136 140 -172 14 -29
22 -56 18 -59 -9 -10 -198 168 -313 296 -77 85 -117 138 -150 203 -46 89 -104
245 -104 279 0 33 17 19 35 -29 31 -82 56 -135 62 -130 2 3 -2 18 -10 34 -8
15 -26 62 -41 103 l-26 75 28 -32 c15 -18 36 -56 46 -85z m3130 40 c-15 -40
-33 -86 -41 -101 -8 -16 -12 -31 -10 -34 6 -5 31 48 62 130 18 48 35 62 35 28
0 -30 -58 -188 -101 -273 -50 -99 -109 -170 -297 -355 -183 -181 -201 -191
-146 -80 16 32 70 96 139 168 148 151 243 297 310 476 21 55 57 113 72 113 1
0 -9 -33 -23 -72z m117 31 c-9 -22 -10 -22 -10 -3 -1 11 2 24 6 27 12 12 14 0
4 -24z m-1329 -86 c-3 -83 -9 -109 -34 -164 -16 -37 -47 -83 -67 -103 -33 -33
-39 -35 -51 -21 -7 8 -19 15 -26 15 -20 0 -18 6 14 54 44 66 47 73 15 43 -16
-15 -48 -62 -71 -105 -36 -68 -75 -112 -88 -99 -3 2 12 66 32 142 42 162 94
268 128 263 15 -2 20 -9 18 -25 -4 -28 6 -30 16 -4 6 16 98 99 112 100 3 1 4
-43 2 -96z m-1759 -36 c69 -115 122 -182 253 -325 129 -139 234 -297 234 -352
0 -46 -364 290 -462 426 -49 69 -168 286 -168 306 0 5 8 8 18 8 12 0 26 -20
45 -64 48 -109 188 -305 246 -343 14 -9 0 12 -32 48 -74 82 -157 205 -197 291
-16 37 -30 71 -30 75 0 3 23 -31 51 -78 27 -46 62 -97 76 -114 30 -36 23 -22
-33 65 -48 75 -84 144 -84 161 0 23 28 -12 83 -104z m2821 41 c-15 -29 -39
-71 -54 -93 -39 -59 -45 -69 -32 -61 6 3 34 45 63 91 28 47 53 85 55 85 6 0
-45 -112 -73 -160 -36 -62 -107 -155 -162 -214 -27 -28 -37 -44 -24 -37 51 26
215 258 260 368 12 27 24 43 36 43 9 0 17 -3 17 -6 0 -4 -25 -56 -56 -117
-104 -207 -195 -315 -441 -525 -144 -122 -160 -125 -102 -16 50 96 107 175
184 254 125 130 251 294 305 400 18 35 44 63 48 52 2 -6 -9 -34 -24 -64z"/>
<path d="M3250 2765 c0 -8 7 -15 15 -15 8 0 15 7 15 15 0 8 -7 15 -15 15 -8 0
-15 -7 -15 -15z"/>
<path d="M3200 2625 c0 -20 4 -26 18 -23 9 2 17 12 17 23 0 11 -8 21 -17 23
-14 3 -18 -3 -18 -23z"/>
<path d="M3376 2783 c-12 -12 -6 -33 9 -33 8 0 15 6 15 14 0 17 -14 28 -24 19z"/>
<path d="M3377 2654 c-16 -16 -7 -44 14 -44 15 0 20 5 17 22 -3 22 -19 33 -31
22z"/>
<path d="M3495 2770 c-3 -6 1 -13 10 -16 19 -8 30 0 20 15 -8 14 -22 14 -30 1z"/>
<path d="M3540 2631 c0 -24 18 -37 31 -24 13 13 1 43 -17 43 -8 0 -14 -9 -14
-19z"/>
<path d="M3676 2632 c-2 -4 -1 -14 4 -22 7 -11 12 -12 21 -3 6 6 8 16 5 22 -8
13 -23 14 -30 3z"/>
<path d="M3070 2619 c0 -24 23 -21 28 4 2 10 -3 17 -12 17 -10 0 -16 -9 -16
-21z"/>
<path d="M2580 2563 c0 -6 7 -24 16 -39 l16 -29 -7 30 c-7 31 -25 59 -25 38z"/>
<path d="M2547 2493 c-3 -5 -8 -34 -11 -64 l-6 -54 15 59 c14 55 15 80 2 59z"/>
<path d="M2598 2365 c-3 -14 -1 -25 3 -25 5 0 9 11 9 25 0 14 -2 25 -4 25 -2
0 -6 -11 -8 -25z"/>
<path d="M2607 2273 c-4 -3 -7 -11 -7 -17 0 -6 5 -5 12 2 6 6 9 14 7 17 -3 3
-9 2 -12 -2z"/>
<path d="M2522 2204 c-8 -9 -10 -23 -6 -36 6 -19 7 -20 16 -4 5 9 8 25 6 35
-3 16 -5 17 -16 5z"/>
<path d="M2560 2131 c0 -6 4 -13 10 -16 6 -3 7 1 4 9 -7 18 -14 21 -14 7z"/>
<path d="M2637 2103 c-4 -3 -7 -11 -7 -17 0 -6 5 -5 12 2 6 6 9 14 7 17 -3 3
-9 2 -12 -2z"/>
<path d="M2510 2059 c0 -18 2 -19 15 -5 8 8 15 17 15 20 0 3 -7 6 -15 6 -9 0
-15 -9 -15 -21z"/>
<path d="M4191 2448 c-10 -30 -9 -31 4 -14 8 11 15 26 15 33 0 22 -8 14 -19
-19z"/>
<path d="M4181 2310 c0 -8 4 -22 9 -30 12 -18 12 -2 0 25 -6 13 -9 15 -9 5z"/>
<path d="M4152 2190 c0 -19 2 -27 5 -17 2 9 2 25 0 35 -3 9 -5 1 -5 -18z"/>
<path d="M4171 2204 c0 -11 3 -14 6 -6 3 7 2 16 -1 19 -3 4 -6 -2 -5 -13z"/>
<path d="M4251 2163 c-1 -17 4 -35 9 -38 11 -7 11 9 0 45 -8 24 -8 24 -9 -7z"/>
<path d="M4156 2057 c3 -10 9 -15 12 -12 3 3 0 11 -7 18 -10 9 -11 8 -5 -6z"/>
<path d="M4255 2040 c-3 -5 -1 -10 4 -10 6 0 11 5 11 10 0 6 -2 10 -4 10 -3 0
-8 -4 -11 -10z"/>
<path d="M3952 2240 c0 -14 2 -19 5 -12 2 6 2 18 0 25 -3 6 -5 1 -5 -13z"/>
<path d="M4031 2208 c-1 -15 4 -30 9 -33 12 -7 12 12 0 40 -8 18 -9 17 -9 -7z"/>
<path d="M3154 2405 c4 -12 65 -10 78 3 6 6 -7 9 -36 8 -26 0 -44 -5 -42 -11z"/>
<path d="M3415 2420 c-11 -4 -36 -5 -55 -3 -27 4 -31 2 -20 -6 18 -13 70 -14
90 -1 20 12 10 19 -15 10z"/>
<path d="M3557 2403 c9 -7 24 -13 34 -13 9 0 21 6 27 13 8 9 0 12 -34 12 -38
0 -42 -2 -27 -12z"/>
<path d="M3040 2400 c-22 -6 -23 -8 -7 -15 11 -4 23 -3 30 4 15 15 7 19 -23
11z"/>
<path d="M3700 2398 c0 -14 30 -22 41 -11 7 7 2 12 -15 15 -14 3 -26 1 -26 -4z"/>
<path d="M3344 2284 c-18 -14 -18 -15 6 -8 14 4 32 8 40 8 8 0 26 -4 40 -8 24
-7 24 -6 6 8 -11 9 -32 16 -46 16 -14 0 -35 -7 -46 -16z"/>
<path d="M3340 2198 l5 -63 43 -3 42 -3 0 50 c0 27 3 56 6 65 5 13 -3 16 -47
16 l-54 0 5 -62z"/>
<path d="M1461 1824 c0 -11 3 -14 6 -6 3 7 2 16 -1 19 -3 4 -6 -2 -5 -13z"/>
<path d="M3800 1925 c-7 -8 -13 -33 -14 -54 -2 -32 1 -39 15 -38 10 1 23 12
28 25 10 21 9 23 -9 17 -23 -7 -26 6 -9 37 13 25 6 34 -11 13z"/>
<path d="M3710 1916 c0 -4 5 -16 10 -27 8 -15 7 -19 -4 -19 -9 0 -12 -7 -9
-20 7 -27 33 -25 33 3 0 18 2 19 10 7 9 -13 11 -13 20 0 13 20 13 33 -1 25 -6
-4 -21 3 -35 16 -13 12 -24 19 -24 15z"/>
<path d="M3010 1892 c1 -16 26 -51 35 -49 5 1 17 -18 27 -43 l17 -45 7 32 c11
55 29 58 26 5 -2 -34 0 -43 7 -32 5 8 13 11 17 7 4 -4 14 2 22 14 18 25 8 37
-18 21 -24 -15 -24 -15 -5 38 8 23 15 44 15 47 0 12 -38 -19 -50 -41 -18 -34
-24 -33 -49 8 -20 31 -51 55 -51 38z"/>
<path d="M3380 1880 c-9 -16 -15 -19 -24 -11 -10 9 -12 6 -8 -14 7 -38 39 -33
45 8 6 40 2 45 -13 17z"/>
<path d="M3320 1851 c0 -5 5 -13 10 -16 6 -3 10 -2 10 4 0 5 -4 13 -10 16 -5
3 -10 2 -10 -4z"/>
<path d="M2755 1820 c10 -32 11 -34 30 -27 8 4 15 14 15 22 0 9 -5 13 -10 10
-6 -4 -18 -1 -27 7 -14 11 -15 10 -8 -12z"/>
<path d="M3001 1788 c26 -53 34 -61 26 -28 -6 24 -5 24 8 6 21 -27 29 -14 20
31 -5 22 -10 31 -12 21 -4 -16 -7 -17 -34 -2 l-30 15 22 -43z"/>
<path d="M4010 1795 c0 -34 15 -43 32 -20 13 17 9 25 -8 18 -13 -5 -15 -2 -9
15 4 13 2 22 -4 22 -6 0 -11 -16 -11 -35z"/>
<path d="M2730 1811 c0 -5 5 -13 10 -16 6 -3 10 -2 10 4 0 5 -4 13 -10 16 -5
3 -10 2 -10 -4z"/>
<path d="M3573 1769 l-27 -41 -25 31 c-34 41 -45 39 -24 -4 18 -38 12 -55 -12
-35 -25 21 -28 5 -4 -31 11 -19 18 -25 15 -15 -5 16 -4 17 9 6 13 -11 15 -8
16 21 l1 34 12 -29 13 -29 12 36 c17 49 31 56 21 10 -10 -44 -2 -63 17 -38 13
18 13 18 13 0 0 -14 6 -9 19 15 22 41 20 46 -8 30 -26 -14 -29 6 -6 50 25 48
-9 39 -42 -11z"/>
<path d="M3967 1783 c6 -16 5 -17 -12 -3 -16 13 -18 13 -13 0 2 -8 15 -16 27
-18 17 -3 22 1 19 14 -1 9 -9 19 -16 22 -8 2 -10 -2 -5 -15z"/>
<path d="M5301 1824 c0 -11 3 -14 6 -6 3 7 2 16 -1 19 -3 4 -6 -2 -5 -13z"/>
<path d="M1930 1724 c0 -6 7 -19 16 -30 14 -18 14 -18 3 6 -14 31 -19 36 -19
24z"/>
<path d="M2541 1612 c-2 -22 27 -82 40 -82 8 0 8 4 1 13 -5 6 -17 28 -25 47
-9 19 -16 29 -16 22z"/>
<path d="M4266 1673 c-6 -14 -5 -15 5 -6 7 7 10 15 7 18 -3 3 -9 -2 -12 -12z"/>
<path d="M1821 1664 c0 -11 3 -14 6 -6 3 7 2 16 -1 19 -3 4 -6 -2 -5 -13z"/>
<path d="M1831 1625 c0 -11 4 -27 9 -35 9 -13 10 -13 9 0 0 8 -4 24 -9 35 l-9
20 0 -20z"/>
<path d="M4926 1614 c-4 -14 -5 -28 -3 -31 3 -2 8 8 11 23 4 14 5 28 3 31 -3
2 -8 -8 -11 -23z"/>
<path d="M3931 1508 c0 -9 -4 -25 -7 -35 -5 -17 -5 -17 6 0 6 10 9 25 7 35 -4
15 -5 15 -6 0z"/>
<path d="M2950 1425 c13 -14 33 -25 45 -25 11 0 25 -4 31 -10 6 -6 16 2 27 22
13 22 14 28 3 19 -12 -10 -16 -9 -25 6 -10 17 -10 17 -11 1 0 -23 -42 -24 -60
-3 -7 8 -17 15 -23 15 -6 0 0 -11 13 -25z"/>
<path d="M2040 1384 c0 -12 57 -104 65 -104 3 0 -6 21 -21 48 -32 54 -44 71
-44 56z"/>
<path d="M2120 1250 c6 -11 13 -20 16 -20 2 0 0 9 -6 20 -6 11 -13 20 -16 20
-2 0 0 -9 6 -20z"/>
<path d="M2590 815 c13 -14 26 -25 28 -25 3 0 -5 11 -18 25 -13 14 -26 25 -28
25 -3 0 5 -11 18 -25z"/>
<path d="M2660 755 c13 -14 26 -25 28 -25 3 0 -5 11 -18 25 -13 14 -26 25 -28
25 -3 0 5 -11 18 -25z"/>
<path d="M4676 1313 c-25 -43 -54 -89 -63 -103 -23 -35 -3 -13 34 35 40 54 87
135 80 141 -2 3 -25 -30 -51 -73z"/>
<path d="M4094 748 l-19 -23 23 19 c21 18 27 26 19 26 -2 0 -12 -10 -23 -22z"/>
<path d="M1770 985 c0 -5 5 -17 10 -25 5 -8 10 -10 10 -5 0 6 -5 17 -10 25 -5
8 -10 11 -10 5z"/>
<path d="M5006 1013 c-6 -14 -5 -15 5 -6 7 7 10 15 7 18 -3 3 -9 -2 -12 -12z"/>
<path d="M4982 965 c-17 -37 -14 -45 4 -12 9 16 14 31 11 33 -2 2 -9 -7 -15
-21z"/>
<path d="M4901 1073 c-10 -26 -10 -27 4 -9 8 11 15 23 15 28 0 15 -7 8 -19
-19z"/>
<path d="M2070 991 c0 -6 4 -13 10 -16 6 -3 7 1 4 9 -7 18 -14 21 -14 7z"/>
<path d="M4709 1013 c-29 -35 -41 -53 -36 -53 2 0 17 16 31 35 28 36 31 49 5
18z"/>
<path d="M2768 2485 c-4 -11 -9 -40 -12 -65 l-6 -45 15 40 c9 22 14 51 13 65
-3 23 -4 23 -10 5z"/>
<path d="M2736 2323 c-16 -121 -17 -130 -5 -103 11 27 25 150 17 150 -3 0 -9
-21 -12 -47z"/>
<path d="M2763 2355 c-3 -9 -3 -18 -1 -21 3 -3 8 4 11 16 6 23 -1 27 -10 5z"/>
<path d="M2814 2218 c-4 -6 -3 -8 4 -4 6 3 12 -3 15 -16 4 -20 4 -19 6 5 1 28
-12 36 -25 15z"/>
<path d="M2747 2179 c-12 -43 -8 -55 9 -31 10 15 12 27 6 38 -8 14 -10 13 -15
-7z"/>
<path d="M2716 2175 c-3 -9 -6 -24 -5 -33 0 -9 5 -4 10 12 9 32 6 48 -5 21z"/>
<path d="M2715 2090 c-3 -5 -1 -10 4 -10 6 0 11 5 11 10 0 6 -2 10 -4 10 -3 0
-8 -4 -11 -10z"/>
</g>
</svg>
